<?xml version="1.0" encoding="UTF-8"?><svg id="_레이어_2" xmlns="http://www.w3.org/2000/svg" viewBox="0 0 317.52 326.73"><g id="Layer_1"><path d="M317.36,161.87c-.28-7.09-1.03-14.05-2.21-20.87-4.09-23.56-14.46-45.72-31.05-62.94-48.91-50.76-96.56-8.27-116.09,14.25-6.22-55,32.14-59.85,32.14-59.85L189.56,0c-41.97,13.57-44.55,58.45-39.68,92.75-19.28-22.4-67.23-65.78-116.46-14.69C16.83,95.28,6.46,117.45,2.37,141c-1.18,6.82-1.93,13.78-2.21,20.87-.08,2.12-.16,4.24-.16,6.38,0,87.52,70.95,158.48,158.48,158.48l.57-.96v.96c87.53,0,158.48-70.95,158.48-158.48,0-2.14-.08-4.26-.16-6.38Z"/></g></svg>