<?xml version="1.0" encoding="UTF-8"?><svg id="_레이어_2" xmlns="http://www.w3.org/2000/svg" viewBox="0 0 158.76 272.55"><defs><style>.cls-1{fill:#fcf9ce;}.cls-2{fill:#ed1c24;}.cls-3{fill:#231f20;}</style></defs><g id="Layer_1"><g><path class="cls-2" d="M.16,107.7c.82-20.56,5.55-40.1,13.47-57.92,70.12-112.11,145.13,.18,145.13,.18l-.29,222.59C70.95,272.55,0,201.6,0,114.08c0-2.14,.08-4.26,.16-6.38Z"/><g><path class="cls-1" d="M12.6,108.67c.74-19.85,5-38.72,12.15-55.93,63.21-108.27,130.83,.18,130.83,.18l-.26,214.97c-78.9,0-142.86-68.52-142.86-153.05,0-2.07,.07-4.12,.15-6.16Z"/><ellipse class="cls-3" cx="119.85" cy="139.62" rx="11.69" ry="20.6"/></g></g></g></svg>