<?xml version="1.0" encoding="UTF-8"?><svg id="_레이어_2" xmlns="http://www.w3.org/2000/svg" viewBox="0 0 158.76 272.55"><defs><style>.cls-1{fill:#fcf9ce;}.cls-2{fill:#ed1c24;}.cls-3{fill:#231f20;}</style></defs><g id="Layer_1"><g><path class="cls-2" d="M158.6,107.7c-.82-20.56-5.55-40.1-13.47-57.92C75.01-62.33,0,49.96,0,49.96l.29,222.59c87.52,0,158.48-70.95,158.48-158.48,0-2.14-.08-4.26-.16-6.38Z"/><g><path class="cls-1" d="M146.16,108.67c-.74-19.85-5-38.72-12.15-55.93-63.21-108.27-130.83,.18-130.83,.18l.26,214.97c78.9,0,142.86-68.52,142.86-153.05,0-2.07-.07-4.12-.15-6.16Z"/><path class="cls-3" d="M50.6,139.62c0,11.37-5.23,20.6-11.69,20.6-6.45,0-11.69-9.22-11.69-20.6,0-11.37,5.23-20.6,11.69-20.6s11.69,9.22,11.69,20.6Z"/></g></g></g></svg>